# xmcd
#
# Track frame offsets:
#	150
#	22986
#	39696
#	59847
#	83129
#	103456
#	141568
#	159660
#
# Disc length: 2694 seconds
#
# Revision: 0
# Processed by: cddbd v1.5.2PL0 Copyright (c) Steve Scherf et al.
# Submitted via: EasyCDDAExtractor 16.0.6.1
#
DISCID=750a8408
DTITLE=서울전자음악단 - Life is Strange (Deluxe Edition)
DYEAR=1900
DGENRE=
TTITLE0=Game Music (Unreleased)
TTITLE1=종소리 (Alternate Version - vocal. 이승열)
TTITLE2=고양이의 고향노래 (Alternate Version - vocal. 이승열)
TTITLE3=보름달 (Unreleased)
TTITLE4=고양이의 고향노래 (Alternate Version)
TTITLE5=서로 다른 (Live)
TTITLE6=Wild Thing (Live)
TTITLE7=종소리 (Live)
EXTD=
EXTT0=
EXTT1=
EXTT2=
EXTT3=
EXTT4=
EXTT5=
EXTT6=
EXTT7=
PLAYORDER=
